<?xml version="1.0" encoding="UTF-8" standalone="no"?>
<!DOCTYPE svg PUBLIC "-//W3C//DTD SVG 1.1//EN" "http://www.w3.org/Graphics/SVG/1.1/DTD/svg11.dtd">
<svg version="1.1" xmlns="http://www.w3.org/2000/svg" xmlns:xlink="http://www.w3.org/1999/xlink" preserveAspectRatio="xMidYMid meet" viewBox="92.44516739615541 38.26707989967393 414.21247047535127 413.20055659484547" width="408.21" height="407.2"><defs><path d="M316.68 41.05L324.63 41.91L332.57 43.09L340.5 44.59L348.4 46.41L356.27 48.56L364.09 51.04L371.87 53.86L379.58 57.01L387.23 60.5L394.73 64.3L402 68.36L409.05 72.68L415.87 77.24L422.46 82.05L428.8 87.08L434.91 92.34L440.78 97.8L446.41 103.47L451.78 109.34L456.9 115.39L461.77 121.62L466.39 128.01L470.74 134.57L474.82 141.28L478.65 148.13L482.2 155.11L485.48 162.22L488.48 169.44L491.2 176.77L493.64 184.2L495.8 191.72L497.67 199.31L499.25 206.99L500.53 214.72L501.52 222.51L502.2 230.34L502.58 238.21L502.66 246.11L502.42 254.02L501.88 261.95L501.01 269.88L499.83 277.8L498.33 285.71L496.5 293.59L494.34 301.44L491.86 309.25L489.03 317L485.87 324.7L482.37 332.33L478.57 339.81L474.5 347.06L470.17 354.09L465.59 360.9L460.77 367.46L455.73 373.8L450.46 379.89L444.98 385.75L439.29 391.36L433.41 396.72L427.35 401.83L421.1 406.69L414.69 411.29L408.12 415.63L401.4 419.7L394.53 423.52L387.53 427.06L380.4 430.33L373.16 433.32L365.81 436.04L358.37 438.48L350.83 440.63L343.21 442.49L335.53 444.06L327.77 445.34L319.97 446.33L312.11 447.01L304.22 447.39L296.31 447.47L288.37 447.23L280.42 446.69L272.47 445.83L264.53 444.65L256.6 443.15L248.7 441.32L240.83 439.17L233.01 436.69L225.23 433.88L217.52 430.73L209.87 427.23L202.37 423.44L195.1 419.38L188.05 415.06L181.23 410.49L174.65 405.69L168.3 400.65L162.19 395.4L156.32 389.93L150.7 384.26L145.32 378.4L140.2 372.35L135.33 366.12L130.72 359.72L126.37 353.16L122.28 346.46L118.46 339.61L114.91 332.62L111.63 325.52L108.62 318.29L105.9 310.96L103.46 303.54L101.3 296.02L99.43 288.42L97.86 280.75L96.57 273.02L95.59 265.23L94.9 257.4L94.52 249.53L94.45 241.63L94.68 233.71L95.23 225.78L96.09 217.85L97.27 209.93L98.77 202.02L100.6 194.14L102.76 186.29L105.25 178.49L108.07 170.73L111.23 163.04L114.73 155.41L118.53 147.93L122.61 140.67L126.94 133.64L131.51 126.84L136.33 120.27L141.37 113.94L146.64 107.84L152.12 101.99L157.81 96.38L163.69 91.02L169.75 85.91L176 81.05L182.41 76.45L188.98 72.11L195.71 68.03L202.57 64.22L209.57 60.68L216.7 57.41L223.94 54.41L231.29 51.69L238.73 49.26L246.27 47.11L253.89 45.24L261.58 43.67L269.33 42.39L277.14 41.41L284.99 40.72L292.88 40.34L300.8 40.27L308.73 40.5L316.68 41.05ZM345.28 57.83L338.73 61.57L332.36 65.28L326.18 68.95L320.19 72.58L314.39 76.18L308.78 79.74L303.35 83.27L298.12 86.76L293.07 90.22L288.21 93.64L283.54 97.02L279.06 100.37L274.76 103.69L270.66 106.97L266.74 110.21L263.02 113.42L259.48 116.59L256.13 119.72L252.97 122.82L249.99 125.89L247.21 128.92L244.61 131.91L242.21 134.87L239.99 137.79L237.96 140.68L236.12 143.53L234.47 146.34L233 149.12L231.73 151.87L230.64 154.57L229.74 157.25L229.03 159.88L228.51 162.49L228.18 165.05L228.03 167.58L228.08 170.08L228.31 172.53L228.73 174.96L229.58 178.49L230.56 181.87L231.67 185.12L232.9 188.23L234.24 191.22L235.68 194.11L237.22 196.89L238.84 199.58L240.54 202.19L242.32 204.73L244.15 207.2L246.04 209.62L247.98 211.99L249.95 214.33L251.96 216.65L253.98 218.94L256.02 221.23L258.07 223.53L260.11 225.83L262.14 228.16L264.15 230.52L266.13 232.92L268.07 235.37L269.98 237.88L271.83 240.46L273.62 243.12L275.34 245.86L276.99 248.71L278.55 251.65L280.02 254.72L281.38 257.91L282.64 261.24L283.78 264.71L284.8 268.33L285.68 272.12L286.42 276.08L287.01 280.22L287.44 284.56L287.7 289.1L287.79 293.84L287.79 294.64L287.79 295.44L287.78 296.23L287.76 297.02L287.74 297.8L287.72 298.59L287.7 299.37L287.67 300.15L287.63 300.94L287.59 301.72L287.55 302.51L287.5 303.31L287.44 304.1L287.38 304.91L287.32 305.72L287.25 306.53L287.17 307.36L287.09 308.19L287 309.04L286.9 309.89L286.8 310.76L286.7 311.64L286.58 312.54L286.46 313.44L286.34 314.37L286.21 315.31L286.07 316.27L285.92 317.24L285.77 318.24L285.61 319.25L285.44 320.29L285.26 321.34L285.08 322.42L284.89 323.53L284.69 324.66L284.48 325.81L284.27 326.99L284.04 328.2L283.81 329.43L283.57 330.69L283.41 331.55L283.24 332.39L283.07 333.24L282.9 334.08L282.72 334.91L282.54 335.75L282.36 336.58L282.18 337.4L281.99 338.23L281.8 339.05L281.61 339.86L281.41 340.67L281.21 341.48L281.01 342.29L280.81 343.09L280.6 343.89L280.39 344.69L280.18 345.48L279.96 346.27L279.74 347.05L279.52 347.83L279.3 348.61L279.07 349.39L278.84 350.16L278.61 350.93L278.37 351.69L278.13 352.45L277.89 353.21L277.65 353.96L277.4 354.71L277.15 355.46L276.89 356.21L276.64 356.95L276.38 357.68L276.12 358.42L275.85 359.15L275.59 359.87L275.32 360.6L275.04 361.32L274.77 362.03L274.46 362.81L274.16 363.6L273.85 364.38L273.54 365.17L273.23 365.97L272.91 366.76L272.6 367.56L272.27 368.36L271.95 369.17L271.62 369.98L271.29 370.79L270.96 371.6L270.63 372.42L270.29 373.24L269.95 374.06L269.61 374.89L269.26 375.71L268.91 376.55L268.56 377.38L268.21 378.22L267.85 379.06L267.49 379.9L267.13 380.75L266.77 381.6L266.4 382.45L266.03 383.31L265.66 384.17L265.28 385.03L264.91 385.89L264.52 386.76L264.14 387.63L263.76 388.5L263.37 389.38L262.97 390.26L262.58 391.14L262.18 392.03L261.78 392.91L261.38 393.81L260.98 394.7L260.57 395.6L260.15 396.5L259.71 397.4L259.25 398.31L258.78 399.22L258.28 400.13L257.77 401.04L257.23 401.96L256.68 402.88L256.1 403.81L255.51 404.73L254.9 405.66L254.27 406.6L253.62 407.53L252.95 408.47L252.26 409.41L251.55 410.36L250.82 411.31L250.07 412.26L249.3 413.21L248.52 414.17L247.71 415.13L246.89 416.09L246.04 417.06L245.18 418.02L244.3 419L243.39 419.97L242.47 420.95L241.53 421.93L240.57 422.91L239.59 423.9L238.59 424.89L237.58 425.88L236.54 426.88L235.48 427.88L234.41 428.88L233.31 429.88L232.19 430.89L231.06 431.9L229.91 432.91L228.73 433.93L234.33 430.58L239.8 427.24L245.15 423.9L250.38 420.58L255.5 417.27L260.49 413.98L265.36 410.69L270.12 407.41L274.75 404.14L279.26 400.88L283.66 397.64L287.93 394.4L292.09 391.17L296.12 387.96L300.03 384.75L303.83 381.56L307.5 378.37L311.06 375.2L314.5 372.04L317.81 368.89L321.01 365.74L324.08 362.61L327.04 359.49L329.88 356.38L332.59 353.28L335.19 350.19L337.67 347.11L340.02 344.04L342.26 340.99L344.38 337.94L346.37 334.9L348.25 331.87L350.01 328.86L351.65 325.85L353.17 322.86L354.57 319.87L355.84 316.9L357 313.94L358.04 310.98L358.96 308.04L359.66 305.35L360.19 302.71L360.54 300.11L360.73 297.55L360.76 295.03L360.64 292.54L360.38 290.07L359.97 287.64L359.44 285.22L358.78 282.83L358 280.45L357.1 278.09L356.11 275.74L355.01 273.4L353.82 271.06L352.54 268.72L351.18 266.38L349.75 264.03L348.25 261.68L346.69 259.31L345.08 256.93L343.41 254.53L341.71 252.12L339.97 249.67L338.21 247.2L336.42 244.71L334.62 242.17L332.81 239.6L330.99 237L329.18 234.34L327.38 231.65L325.6 228.9L323.84 226.11L322.11 223.25L320.42 220.34L318.77 217.37L317.17 214.33L315.63 211.23L314.15 208.05L312.74 204.8L312.51 204.24L312.28 203.67L312.05 203.09L311.83 202.5L311.61 201.9L311.4 201.29L311.18 200.67L310.98 200.04L310.77 199.4L310.57 198.75L310.37 198.09L310.17 197.43L309.98 196.75L309.79 196.06L309.61 195.37L309.42 194.66L309.24 193.94L309.07 193.22L308.89 192.48L308.72 191.74L308.56 190.99L308.39 190.22L308.23 189.45L308.08 188.67L307.92 187.87L307.77 187.07L307.62 186.26L307.48 185.44L307.34 184.61L307.2 183.77L307.07 182.92L306.94 182.06L306.81 181.19L306.68 180.31L306.56 179.42L306.44 178.52L306.33 177.61L306.22 176.7L306.11 175.77L306 174.83L305.94 174.29L305.89 173.75L305.84 173.21L305.79 172.67L305.75 172.13L305.71 171.59L305.67 171.05L305.64 170.51L305.61 169.97L305.59 169.43L305.56 168.89L305.54 168.35L305.53 167.81L305.52 167.27L305.51 166.73L305.5 166.19L305.5 165.65L305.51 165.1L305.51 164.56L305.52 164.02L305.53 163.48L305.55 162.94L305.57 162.4L305.59 161.86L305.62 161.32L305.65 160.78L305.68 160.24L305.72 159.7L305.76 159.16L305.81 158.62L305.86 158.08L305.91 157.54L305.96 157L306.02 156.47L306.08 155.93L306.15 155.39L306.22 154.85L306.29 154.32L306.37 153.78L306.45 153.24L306.57 152.46L306.69 151.67L306.81 150.9L306.94 150.13L307.07 149.37L307.2 148.61L307.33 147.87L307.47 147.12L307.6 146.39L307.74 145.66L307.88 144.94L308.02 144.22L308.17 143.51L308.31 142.81L308.46 142.11L308.61 141.42L308.76 140.74L308.91 140.06L309.06 139.39L309.22 138.73L309.38 138.07L309.54 137.42L309.7 136.78L309.86 136.14L310.03 135.51L310.2 134.89L310.37 134.27L310.54 133.66L310.71 133.05L310.89 132.46L311.06 131.87L311.24 131.28L311.42 130.7L311.6 130.13L311.79 129.57L311.97 129.01L312.16 128.46L312.35 127.91L312.54 127.37L312.74 126.84L313.01 126.09L313.3 125.34L313.59 124.59L313.89 123.83L314.19 123.06L314.51 122.29L314.83 121.51L315.16 120.72L315.49 119.93L315.83 119.14L316.19 118.33L316.54 117.53L316.91 116.71L317.28 115.89L317.66 115.07L318.05 114.24L318.45 113.4L318.85 112.56L319.26 111.71L319.68 110.86L320.11 110L320.54 109.13L320.98 108.26L321.43 107.39L321.89 106.5L322.35 105.61L322.82 104.72L323.3 103.82L323.79 102.92L324.28 102L324.78 101.09L325.29 100.16L325.81 99.24L326.33 98.3L326.86 97.36L327.4 96.41L327.94 95.46L328.5 94.51L329.06 93.54L329.63 92.57L358.96 50.24L352.03 54.05L345.28 57.83Z" id="b1IVlol7vr"></path><radialGradient id="gradientbFTIInT2z" gradientUnits="userSpaceOnUse" cx="298.55" cy="240.89" dx="234.94" dy="435.12" r="204.38"><stop style="stop-color: #0f4c81;stop-opacity: 1" offset="0%"></stop><stop style="stop-color: #115a9a;stop-opacity: 1" offset="100%"></stop></radialGradient></defs><g><g><g><filter id="shadow3528175" x="83.45" y="29.27" width="431.21" height="430.2" filterUnits="userSpaceOnUse" primitiveUnits="userSpaceOnUse"><feFlood></feFlood><feComposite in2="SourceAlpha" operator="in"></feComposite><feGaussianBlur stdDeviation="1.41"></feGaussianBlur><feOffset dx="1" dy="1" result="afterOffset"></feOffset><feFlood flood-color="#000000" flood-opacity="0.5"></feFlood><feComposite in2="afterOffset" operator="in"></feComposite><feMorphology operator="dilate" radius="1"></feMorphology><feComposite in2="SourceAlpha" operator="out"></feComposite></filter><path d="M316.68 41.05L324.63 41.91L332.57 43.09L340.5 44.59L348.4 46.41L356.27 48.56L364.09 51.04L371.87 53.86L379.58 57.01L387.23 60.5L394.73 64.3L402 68.36L409.05 72.68L415.87 77.24L422.46 82.05L428.8 87.08L434.91 92.34L440.78 97.8L446.41 103.47L451.78 109.34L456.9 115.39L461.77 121.62L466.39 128.01L470.74 134.57L474.82 141.28L478.65 148.13L482.2 155.11L485.48 162.22L488.48 169.44L491.2 176.77L493.64 184.2L495.8 191.72L497.67 199.31L499.25 206.99L500.53 214.72L501.52 222.51L502.2 230.34L502.58 238.21L502.66 246.11L502.42 254.02L501.88 261.95L501.01 269.88L499.83 277.8L498.33 285.71L496.5 293.59L494.34 301.44L491.86 309.25L489.03 317L485.87 324.7L482.37 332.33L478.57 339.81L474.5 347.06L470.17 354.09L465.59 360.9L460.77 367.46L455.73 373.8L450.46 379.89L444.98 385.75L439.29 391.36L433.41 396.72L427.35 401.83L421.1 406.69L414.69 411.29L408.12 415.63L401.4 419.7L394.53 423.52L387.53 427.06L380.4 430.33L373.16 433.32L365.81 436.04L358.37 438.48L350.83 440.63L343.21 442.49L335.53 444.06L327.77 445.34L319.97 446.33L312.11 447.01L304.22 447.39L296.31 447.47L288.37 447.23L280.42 446.69L272.47 445.83L264.53 444.65L256.6 443.15L248.7 441.32L240.83 439.17L233.01 436.69L225.23 433.88L217.52 430.73L209.87 427.23L202.37 423.44L195.1 419.38L188.05 415.06L181.23 410.49L174.65 405.69L168.3 400.65L162.19 395.4L156.32 389.93L150.7 384.26L145.32 378.4L140.2 372.35L135.33 366.12L130.72 359.72L126.37 353.16L122.28 346.46L118.46 339.61L114.91 332.62L111.63 325.52L108.62 318.29L105.9 310.96L103.46 303.54L101.3 296.02L99.43 288.42L97.86 280.75L96.57 273.02L95.59 265.23L94.9 257.4L94.52 249.53L94.45 241.63L94.68 233.71L95.23 225.78L96.09 217.85L97.27 209.93L98.77 202.02L100.6 194.14L102.76 186.29L105.25 178.49L108.07 170.73L111.23 163.04L114.73 155.41L118.53 147.93L122.61 140.67L126.94 133.64L131.51 126.84L136.33 120.27L141.37 113.94L146.64 107.84L152.12 101.99L157.81 96.38L163.69 91.02L169.75 85.91L176 81.05L182.41 76.45L188.98 72.11L195.71 68.03L202.57 64.22L209.57 60.68L216.7 57.41L223.94 54.41L231.29 51.69L238.73 49.26L246.27 47.11L253.89 45.24L261.58 43.67L269.33 42.39L277.14 41.41L284.99 40.72L292.88 40.34L300.8 40.27L308.73 40.5L316.68 41.05ZM345.28 57.83L338.73 61.57L332.36 65.28L326.18 68.95L320.19 72.58L314.39 76.18L308.78 79.74L303.35 83.27L298.12 86.76L293.07 90.22L288.21 93.64L283.54 97.02L279.06 100.37L274.76 103.69L270.66 106.97L266.74 110.21L263.02 113.42L259.48 116.59L256.13 119.72L252.97 122.82L249.99 125.89L247.21 128.92L244.61 131.91L242.21 134.87L239.99 137.79L237.96 140.68L236.12 143.53L234.47 146.34L233 149.12L231.73 151.87L230.64 154.57L229.74 157.25L229.03 159.88L228.51 162.49L228.18 165.05L228.03 167.58L228.08 170.08L228.31 172.53L228.73 174.96L229.58 178.49L230.56 181.87L231.67 185.12L232.9 188.23L234.24 191.22L235.68 194.11L237.22 196.89L238.84 199.58L240.54 202.19L242.32 204.73L244.15 207.2L246.04 209.62L247.98 211.99L249.95 214.33L251.96 216.65L253.98 218.94L256.02 221.23L258.07 223.53L260.11 225.83L262.14 228.16L264.15 230.52L266.13 232.92L268.07 235.37L269.98 237.88L271.83 240.46L273.62 243.12L275.34 245.86L276.99 248.71L278.55 251.65L280.02 254.72L281.38 257.91L282.64 261.24L283.78 264.71L284.8 268.33L285.68 272.12L286.42 276.08L287.01 280.22L287.44 284.56L287.7 289.1L287.79 293.84L287.79 294.64L287.79 295.44L287.78 296.23L287.76 297.02L287.74 297.8L287.72 298.59L287.7 299.37L287.67 300.15L287.63 300.94L287.59 301.72L287.55 302.51L287.5 303.31L287.44 304.1L287.38 304.91L287.32 305.72L287.25 306.53L287.17 307.36L287.09 308.19L287 309.04L286.9 309.89L286.8 310.76L286.7 311.64L286.58 312.54L286.46 313.44L286.34 314.37L286.21 315.31L286.07 316.27L285.92 317.24L285.77 318.24L285.61 319.25L285.44 320.29L285.26 321.34L285.08 322.42L284.89 323.53L284.69 324.66L284.48 325.81L284.27 326.99L284.04 328.2L283.81 329.43L283.57 330.69L283.41 331.55L283.24 332.39L283.07 333.24L282.9 334.08L282.72 334.91L282.54 335.75L282.36 336.58L282.18 337.4L281.99 338.23L281.8 339.05L281.61 339.86L281.41 340.67L281.21 341.48L281.01 342.29L280.81 343.09L280.6 343.89L280.39 344.69L280.18 345.48L279.96 346.27L279.74 347.05L279.52 347.83L279.3 348.61L279.07 349.39L278.84 350.16L278.61 350.93L278.37 351.69L278.13 352.45L277.89 353.21L277.65 353.96L277.4 354.71L277.15 355.46L276.89 356.21L276.64 356.95L276.38 357.68L276.12 358.42L275.85 359.15L275.59 359.87L275.32 360.6L275.04 361.32L274.77 362.03L274.46 362.81L274.16 363.6L273.85 364.38L273.54 365.17L273.23 365.97L272.91 366.76L272.6 367.56L272.27 368.36L271.95 369.17L271.62 369.98L271.29 370.79L270.96 371.6L270.63 372.42L270.29 373.24L269.95 374.06L269.61 374.89L269.26 375.71L268.91 376.55L268.56 377.38L268.21 378.22L267.85 379.06L267.49 379.9L267.13 380.75L266.77 381.6L266.4 382.45L266.03 383.31L265.66 384.17L265.28 385.03L264.91 385.89L264.52 386.76L264.14 387.63L263.76 388.5L263.37 389.38L262.97 390.26L262.58 391.14L262.18 392.03L261.78 392.91L261.38 393.81L260.98 394.7L260.57 395.6L260.15 396.5L259.71 397.4L259.25 398.31L258.78 399.22L258.28 400.13L257.77 401.04L257.23 401.96L256.68 402.88L256.1 403.81L255.51 404.73L254.9 405.66L254.27 406.6L253.62 407.53L252.95 408.47L252.26 409.41L251.55 410.36L250.82 411.31L250.07 412.26L249.3 413.21L248.52 414.17L247.71 415.13L246.89 416.09L246.04 417.06L245.18 418.02L244.3 419L243.39 419.97L242.47 420.95L241.53 421.93L240.57 422.91L239.59 423.9L238.59 424.89L237.58 425.88L236.54 426.88L235.48 427.88L234.41 428.88L233.31 429.88L232.19 430.89L231.06 431.9L229.91 432.91L228.73 433.93L234.33 430.58L239.8 427.24L245.15 423.9L250.38 420.58L255.5 417.27L260.49 413.98L265.36 410.69L270.12 407.41L274.75 404.14L279.26 400.88L283.66 397.64L287.93 394.4L292.09 391.17L296.12 387.96L300.03 384.75L303.83 381.56L307.5 378.37L311.06 375.2L314.5 372.04L317.81 368.89L321.01 365.74L324.08 362.61L327.04 359.49L329.88 356.38L332.59 353.28L335.19 350.19L337.67 347.11L340.02 344.04L342.26 340.99L344.38 337.94L346.37 334.9L348.25 331.87L350.01 328.86L351.65 325.85L353.17 322.86L354.57 319.87L355.84 316.9L357 313.94L358.04 310.98L358.96 308.04L359.66 305.35L360.19 302.71L360.54 300.11L360.73 297.55L360.76 295.03L360.64 292.54L360.38 290.07L359.97 287.64L359.44 285.22L358.78 282.83L358 280.45L357.1 278.09L356.11 275.74L355.01 273.4L353.82 271.06L352.54 268.72L351.18 266.38L349.75 264.03L348.25 261.68L346.69 259.31L345.08 256.93L343.41 254.53L341.71 252.12L339.97 249.67L338.21 247.2L336.42 244.71L334.62 242.17L332.81 239.6L330.99 237L329.18 234.34L327.38 231.65L325.6 228.9L323.84 226.11L322.11 223.25L320.42 220.34L318.77 217.37L317.17 214.33L315.63 211.23L314.15 208.05L312.74 204.8L312.51 204.24L312.28 203.67L312.05 203.09L311.83 202.5L311.61 201.9L311.4 201.29L311.18 200.67L310.98 200.04L310.77 199.4L310.57 198.75L310.37 198.09L310.17 197.43L309.98 196.75L309.79 196.06L309.61 195.37L309.42 194.66L309.24 193.94L309.07 193.22L308.89 192.48L308.72 191.74L308.56 190.99L308.39 190.22L308.23 189.45L308.08 188.67L307.92 187.87L307.77 187.07L307.62 186.26L307.48 185.44L307.34 184.61L307.2 183.77L307.07 182.92L306.94 182.06L306.81 181.19L306.68 180.31L306.56 179.42L306.44 178.52L306.33 177.61L306.22 176.7L306.11 175.77L306 174.83L305.94 174.29L305.89 173.75L305.84 173.21L305.79 172.67L305.75 172.13L305.71 171.59L305.67 171.05L305.64 170.51L305.61 169.97L305.59 169.43L305.56 168.89L305.54 168.35L305.53 167.81L305.52 167.27L305.51 166.73L305.5 166.19L305.5 165.65L305.51 165.1L305.51 164.56L305.52 164.02L305.53 163.48L305.55 162.94L305.57 162.4L305.59 161.86L305.62 161.32L305.65 160.78L305.68 160.24L305.72 159.7L305.76 159.16L305.81 158.62L305.86 158.08L305.91 157.54L305.96 157L306.02 156.47L306.08 155.93L306.15 155.39L306.22 154.85L306.29 154.32L306.37 153.78L306.45 153.24L306.57 152.46L306.69 151.67L306.81 150.9L306.94 150.13L307.07 149.37L307.2 148.61L307.33 147.87L307.47 147.12L307.6 146.39L307.74 145.66L307.88 144.94L308.02 144.22L308.17 143.51L308.31 142.81L308.46 142.11L308.61 141.42L308.76 140.74L308.91 140.06L309.06 139.39L309.22 138.73L309.38 138.07L309.54 137.42L309.7 136.78L309.86 136.14L310.03 135.51L310.2 134.89L310.37 134.27L310.54 133.66L310.71 133.05L310.89 132.46L311.06 131.87L311.24 131.28L311.42 130.7L311.6 130.13L311.79 129.57L311.97 129.01L312.16 128.46L312.35 127.91L312.54 127.37L312.74 126.84L313.01 126.09L313.3 125.34L313.59 124.59L313.89 123.83L314.19 123.06L314.51 122.29L314.83 121.51L315.16 120.72L315.49 119.93L315.83 119.14L316.19 118.33L316.54 117.53L316.91 116.71L317.28 115.89L317.66 115.07L318.05 114.24L318.45 113.4L318.85 112.56L319.26 111.71L319.68 110.86L320.11 110L320.54 109.13L320.98 108.26L321.43 107.39L321.89 106.5L322.35 105.61L322.82 104.72L323.3 103.82L323.79 102.92L324.28 102L324.78 101.09L325.29 100.16L325.81 99.24L326.33 98.3L326.86 97.36L327.4 96.41L327.94 95.46L328.5 94.51L329.06 93.54L329.63 92.57L358.96 50.24L352.03 54.05L345.28 57.83Z" id="a1fB2LLat8" fill="white" fill-opacity="1" filter="url(#shadow3528175)"></path></g><use xlink:href="#b1IVlol7vr" opacity="1" fill="url(#gradientbFTIInT2z)"></use></g></g></svg>